<svg width="32" height="32" viewBox="0 0 32 32" fill="none" xmlns="http://www.w3.org/2000/svg">
<path fill-rule="evenodd" clip-rule="evenodd" d="M24 16C24 20.4183 20.4183 24 16 24C11.5817 24 8 20.4183 8 16C8 11.5817 11.5817 8 16 8C20.4183 8 24 11.5817 24 16ZM23 16C23 19.866 19.866 23 16 23C12.134 23 9 19.866 9 16C9 12.134 12.134 9 16 9C19.866 9 23 12.134 23 16Z" fill="black"/>
<path d="M16.9296 12.2114H15.0529C14.018 12.2114 13.1936 13.0534 13.1936 14.0882V14.4566C13.1936 14.6144 13.3164 14.7372 13.4742 14.7372C13.6146 14.7372 13.7549 14.6144 13.7549 14.4566V14.0882C13.7549 13.3691 14.3337 12.7727 15.0529 12.7727H16.9296C17.6488 12.7727 18.2452 13.3691 18.2452 14.0882C18.2452 14.5618 17.982 15.0003 17.5611 15.2459L15.8597 16.193C15.5966 16.3509 15.4387 16.6315 15.4387 16.9297V17.5436C15.4387 17.7015 15.5615 17.8418 15.7194 17.8418C15.8597 17.8418 16 17.7015 16 17.5436V16.9297C16 16.8245 16.0526 16.7368 16.1403 16.6841L17.8417 15.7194C18.4381 15.4037 18.8064 14.7723 18.8064 14.0882C18.8064 13.0534 17.9645 12.2114 16.9296 12.2114ZM15.7194 18.6662C15.4037 18.6662 15.1581 18.9293 15.1581 19.2275C15.1581 19.5432 15.4037 19.7887 15.7194 19.7887C16.0176 19.7887 16.2807 19.5432 16.2807 19.2275C16.2807 18.9293 16.0176 18.6662 15.7194 18.6662Z" fill="black"/>
</svg>
