<svg width="32" height="32" viewBox="0 0 32 32" fill="none" xmlns="http://www.w3.org/2000/svg">
<path d="M21 11.625V13.125C21 13.3359 20.8125 13.5 20.625 13.5C20.4141 13.5 20.25 13.3359 20.25 13.125V12H16.125V21H17.625C17.8125 21 18 21.1875 18 21.375C18 21.5625 17.8125 21.75 17.625 21.75H13.875C13.6641 21.75 13.5 21.5625 13.5 21.375C13.5 21.1875 13.6641 21 13.8516 21H15.375V12H11.25V13.125C11.25 13.3359 11.0625 13.5 10.875 13.5C10.6641 13.5 10.5 13.3359 10.5 13.125V11.625C10.5 11.4375 10.6641 11.25 10.875 11.25H20.625C20.8125 11.25 21 11.4375 21 11.625Z" fill="black"/>
</svg>
