<svg width="128" height="128" viewBox="0 0 128 128" fill="none" xmlns="http://www.w3.org/2000/svg">
<g clip-path="url(#clip0_734_23660)">
<rect width="128" height="128" fill="#111111"/>
<rect x="21.2856" y="13.6515" width="3.42896" height="3.42896" fill="white"/>
<rect x="21.2856" y="127.571" width="3.42896" height="3.42896" fill="white"/>
<rect x="23.5" y="15.5" width="111" height="115" stroke="#9747FF"/>
<path d="M57.1405 112.725V101.505L78.5711 83.7769C79.9923 82.5988 81.2078 81.4955 82.2176 80.4669C83.2461 79.4197 84.0315 78.3445 84.5738 77.2411C85.1348 76.1378 85.4154 74.913 85.4154 73.5665C85.4154 72.0892 85.0974 70.827 84.4616 69.7797C83.8445 68.7325 82.9843 67.9284 81.881 67.3674C80.7777 66.7877 79.5061 66.4978 78.0661 66.4978C76.6262 66.4978 75.3546 66.7877 74.2513 67.3674C73.1667 67.9471 72.3252 68.798 71.7268 69.92C71.1283 71.042 70.8291 72.4071 70.8291 74.0153H56.0185C56.0185 69.9761 56.9255 66.4978 58.7394 63.5806C60.5533 60.6634 63.1153 58.4193 66.4252 56.8485C69.7352 55.2777 73.6155 54.4923 78.0661 54.4923C82.6664 54.4923 86.6496 55.2309 90.0156 56.7082C93.4004 58.1669 96.0091 60.2239 97.8417 62.8793C99.693 65.5348 100.619 68.6484 100.619 72.2201C100.619 74.4268 100.161 76.624 99.2442 78.812C98.3279 80.9812 96.6823 83.3842 94.3073 86.0209C91.9324 88.6577 88.557 91.7993 84.1811 95.4459L78.7955 99.9339V100.271H101.236V112.725H57.1405Z" fill="white"/>
<path d="M58.8111 36.1973L58.208 34.9263L58.8111 36.1973ZM98.9785 35.8622L98.4143 37.1509L98.4206 37.1536L98.9785 35.8622ZM113.948 47.8171L109.493 32.1953L98.1918 43.864L113.948 47.8171ZM58.208 34.9263C51.8457 37.9457 46.5908 42.4562 42.8571 48.4609L45.2465 49.9466C48.6758 44.4313 53.5052 40.2725 59.4143 37.4682L58.208 34.9263ZM78.858 30.6242C71.5492 30.6242 64.5512 31.916 58.208 34.9263L59.4143 37.4682C65.3081 34.6712 71.8781 33.4378 78.858 33.4378V30.6242ZM99.5427 34.5735C93.2021 31.7976 86.1955 30.6242 78.858 30.6242V33.4378C85.9018 33.4378 92.5071 34.5648 98.4143 37.1509L99.5427 34.5735ZM105.624 37.8315C103.712 36.5782 101.675 35.4944 99.5364 34.5707L98.4206 37.1536C100.42 38.0176 102.314 39.0261 104.082 40.1848L105.624 37.8315Z" fill="#828282"/>
</g>
<defs>
<clipPath id="clip0_734_23660">
<rect width="128" height="128" fill="white"/>
</clipPath>
</defs>
</svg>
