<svg width="625" height="111" viewBox="0 0 625 111" fill="none" xmlns="http://www.w3.org/2000/svg" style="height:100%;width:100%;">
<path d="M38.7184 25.2475V38.0085H0.91414V25.2475H38.7184ZM9.56765 86.5V20.8211C9.56765 16.3813 10.4317 12.6993 12.1597 9.7749C13.9143 6.85052 16.307 4.65724 19.3377 3.19505C22.3685 1.73286 25.8112 1.00176 29.6661 1.00176C32.2715 1.00176 34.6509 1.20115 36.8043 1.59993C38.9843 1.99871 40.606 2.35761 41.6694 2.67664L38.6386 15.4376C37.974 15.2249 37.1499 15.0255 36.1662 14.8394C35.2091 14.6533 34.2255 14.5603 33.2152 14.5603C30.7162 14.5603 28.9749 15.1451 27.9912 16.3149C27.0076 17.458 26.5158 19.0665 26.5158 21.1401V86.5H9.56765ZM49.0966 86.5V25.2475H66.0846V86.5H49.0966ZM57.6305 17.3517C55.1049 17.3517 52.9382 16.5143 51.1304 14.8394C49.3492 13.1379 48.4586 11.1042 48.4586 8.73808C48.4586 6.39857 49.3492 4.39139 51.1304 2.71652C52.9382 1.01506 55.1049 0.164325 57.6305 0.164325C60.1561 0.164325 62.3095 1.01506 64.0907 2.71652C65.8985 4.39139 66.8024 6.39857 66.8024 8.73808C66.8024 11.1042 65.8985 13.1379 64.0907 14.8394C62.3095 16.5143 60.1561 17.3517 57.6305 17.3517ZM107.288 110.746C101.785 110.746 97.0664 109.988 93.1318 108.473C89.2238 106.984 86.1133 104.95 83.8004 102.371C81.4875 99.7926 79.9854 96.8948 79.2942 93.678L95.0061 91.5645C95.4846 92.7874 96.2423 93.9306 97.2791 94.994C98.3159 96.0574 99.6851 96.9081 101.387 97.5462C103.115 98.2108 105.215 98.5431 107.687 98.5431C111.383 98.5431 114.427 97.6392 116.819 95.8314C119.239 94.0502 120.448 91.0594 120.448 86.8589V75.6532H119.73C118.986 77.3547 117.869 78.9631 116.381 80.4784C114.892 81.9938 112.978 83.23 110.638 84.1871C108.299 85.1442 105.507 85.6227 102.264 85.6227C97.6646 85.6227 93.4774 84.5593 89.7023 82.4325C85.9538 80.279 82.9629 76.9958 80.7298 72.5826C78.5232 68.1429 77.4199 62.5334 77.4199 55.7541C77.4199 48.8154 78.5498 43.0198 80.8095 38.3674C83.0693 33.7149 86.0734 30.2323 89.8219 27.9194C93.597 25.6064 97.7311 24.45 102.224 24.45C105.653 24.45 108.525 25.0349 110.838 26.2046C113.151 27.3478 115.011 28.7834 116.421 30.5114C117.856 32.2129 118.959 33.8877 119.73 35.536H120.368V25.2475H137.237V87.0982C137.237 92.3089 135.961 96.6689 133.408 100.178C130.856 103.687 127.32 106.319 122.801 108.074C118.308 109.855 113.137 110.746 107.288 110.746ZM107.647 72.8618C110.386 72.8618 112.699 72.1838 114.586 70.828C116.5 69.4455 117.962 67.4782 118.973 64.9261C120.01 62.3473 120.528 59.2634 120.528 55.6744C120.528 52.0854 120.023 48.9749 119.013 46.3429C118.002 43.6844 116.54 41.6241 114.626 40.1619C112.712 38.6997 110.386 37.9686 107.647 37.9686C104.856 37.9686 102.503 38.7263 100.589 40.2416C98.6748 41.7304 97.2259 43.8041 96.2423 46.4626C95.2586 49.1211 94.7668 52.1917 94.7668 55.6744C94.7668 59.2102 95.2586 62.2675 96.2423 64.8463C97.2525 67.3985 98.7014 69.3791 100.589 70.7881C102.503 72.1705 104.856 72.8618 107.647 72.8618ZM150.755 86.5V25.2475H166.946V36.0544H167.664C168.94 32.4654 171.067 29.6341 174.044 27.5604C177.022 25.4868 180.584 24.45 184.731 24.45C188.932 24.45 192.508 25.5001 195.459 27.6003C198.409 29.674 200.377 32.492 201.36 36.0544H201.998C203.248 32.5452 205.508 29.7404 208.778 27.6402C212.074 25.5134 215.969 24.45 220.462 24.45C226.178 24.45 230.817 26.2711 234.379 29.9132C237.968 33.5288 239.763 38.6598 239.763 45.3061V86.5H222.815V48.6559C222.815 45.2529 221.911 42.7008 220.103 40.9993C218.295 39.2978 216.036 38.4471 213.324 38.4471C210.24 38.4471 207.834 39.4308 206.106 41.3981C204.378 43.3388 203.514 45.9043 203.514 49.0945V86.5H187.044V48.297C187.044 45.2928 186.18 42.9002 184.452 41.1189C182.751 39.3377 180.504 38.4471 177.713 38.4471C175.825 38.4471 174.124 38.9257 172.608 39.8827C171.12 40.8132 169.937 42.1292 169.059 43.8306C168.182 45.5055 167.743 47.4728 167.743 49.7326V86.5H150.755ZM270.648 87.6565C266.74 87.6565 263.258 86.9785 260.2 85.6227C257.143 84.2403 254.724 82.2065 252.943 79.5214C251.188 76.8097 250.311 73.4333 250.311 69.3924C250.311 65.9895 250.935 63.1315 252.185 60.8186C253.434 58.5057 255.136 56.6447 257.289 55.2357C259.443 53.8267 261.888 52.7633 264.627 52.0455C267.392 51.3277 270.289 50.8226 273.32 50.5301C276.883 50.1579 279.754 49.8123 281.934 49.4933C284.114 49.1477 285.696 48.6426 286.679 47.9779C287.663 47.3133 288.155 46.3297 288.155 45.027V44.7877C288.155 42.2621 287.357 40.3081 285.762 38.9257C284.194 37.5432 281.96 36.852 279.063 36.852C276.005 36.852 273.573 37.5299 271.765 38.8858C269.957 40.215 268.761 41.8899 268.176 43.9104L252.464 42.6343C253.262 38.9124 254.83 35.6955 257.17 32.9838C259.509 30.2456 262.527 28.1453 266.222 26.6831C269.944 25.1944 274.251 24.45 279.142 24.45C282.545 24.45 285.802 24.8488 288.912 25.6463C292.049 26.4439 294.828 27.6801 297.247 29.355C299.693 31.0298 301.62 33.1832 303.029 35.8152C304.438 38.4205 305.143 41.5443 305.143 45.1865V86.5H289.032V78.006H288.553C287.57 79.9201 286.254 81.6083 284.606 83.0705C282.957 84.5061 280.977 85.636 278.664 86.4601C276.351 87.2577 273.679 87.6565 270.648 87.6565ZM275.513 75.9324C278.012 75.9324 280.219 75.4405 282.133 74.4569C284.047 73.4466 285.549 72.0908 286.639 70.3893C287.729 68.6879 288.274 66.7604 288.274 64.607V58.1069C287.743 58.4525 287.012 58.7716 286.081 59.064C285.177 59.3299 284.154 59.5824 283.01 59.8217C281.867 60.0344 280.724 60.2338 279.581 60.4198C278.438 60.5794 277.401 60.7256 276.47 60.8585C274.477 61.1509 272.735 61.6162 271.246 62.2542C269.758 62.8923 268.601 63.7563 267.777 64.8463C266.953 65.9097 266.541 67.239 266.541 68.8341C266.541 71.147 267.378 72.9149 269.053 74.1378C270.755 75.3342 272.908 75.9324 275.513 75.9324ZM407.908 51.0884V86.5H390.92V4.83004H407.43V36.0544H408.147C409.53 32.4388 411.763 29.6075 414.847 27.5604C417.931 25.4868 421.799 24.45 426.451 24.45C430.705 24.45 434.414 25.3805 437.577 27.2414C440.767 29.0758 443.24 31.721 444.995 35.1771C446.776 38.6066 447.653 42.7141 447.626 47.4994V86.5H430.638V50.5301C430.665 46.755 429.708 43.8173 427.767 41.7171C425.853 39.6169 423.168 38.5668 419.712 38.5668C417.399 38.5668 415.352 39.0586 413.571 40.0422C411.816 41.0259 410.434 42.4615 409.423 44.3491C408.44 46.21 407.935 48.4565 407.908 51.0884ZM493.576 25.2475V38.0085H456.689V25.2475H493.576ZM465.063 10.5725H482.051V67.6776C482.051 69.2462 482.29 70.4691 482.769 71.3464C483.247 72.1971 483.912 72.7953 484.763 73.1409C485.64 73.4865 486.65 73.6593 487.794 73.6593C488.591 73.6593 489.389 73.5929 490.186 73.4599C490.984 73.3004 491.595 73.1808 492.021 73.101L494.692 85.7423C493.842 86.0082 492.645 86.3139 491.103 86.6595C489.561 87.0317 487.687 87.2577 485.481 87.3374C481.386 87.4969 477.797 86.9519 474.714 85.7024C471.656 84.4529 469.277 82.5122 467.575 79.8803C465.874 77.2483 465.037 73.9252 465.063 69.9108V10.5725ZM504.642 86.5V25.2475H520.832V36.0544H521.55C522.826 32.4654 524.953 29.6341 527.931 27.5604C530.908 25.4868 534.471 24.45 538.618 24.45C542.818 24.45 546.394 25.5001 549.345 27.6003C552.296 29.674 554.263 32.492 555.247 36.0544H555.885C557.135 32.5452 559.394 29.7404 562.664 27.6402C565.961 25.5134 569.856 24.45 574.349 24.45C580.064 24.45 584.703 26.2711 588.266 29.9132C591.855 33.5288 593.649 38.6598 593.649 45.3061V86.5H576.701V48.6559C576.701 45.2529 575.797 42.7008 573.99 40.9993C572.182 39.2978 569.922 38.4471 567.21 38.4471C564.126 38.4471 561.72 39.4308 559.992 41.3981C558.264 43.3388 557.4 45.9043 557.4 49.0945V86.5H540.931V48.297C540.931 45.2928 540.067 42.9002 538.339 41.1189C536.637 39.3377 534.391 38.4471 531.599 38.4471C529.712 38.4471 528.01 38.9257 526.495 39.8827C525.006 40.8132 523.823 42.1292 522.946 43.8306C522.069 45.5055 521.63 47.4728 521.63 49.7326V86.5H504.642ZM624.056 4.83004V86.5H607.068V4.83004H624.056Z" fill="white"/>
<path d="M316.966 86.5V70.5488L347.433 45.346C349.454 43.6711 351.182 42.1026 352.617 40.6404C354.08 39.1516 355.196 37.623 355.967 36.0544C356.765 34.4859 357.163 32.7446 357.163 30.8304C357.163 28.7302 356.711 26.9357 355.808 25.4469C354.93 23.9581 353.707 22.815 352.139 22.0174C350.57 21.1933 348.762 20.7812 346.715 20.7812C344.668 20.7812 342.861 21.1933 341.292 22.0174C339.75 22.8416 338.554 24.0512 337.703 25.6463C336.852 27.2414 336.427 29.1822 336.427 31.4685H315.371C315.371 25.7261 316.661 20.7812 319.24 16.6339C321.818 12.4866 325.46 9.29637 330.166 7.06321C334.872 4.83004 340.388 3.71346 346.715 3.71346C353.255 3.71346 358.918 4.76358 363.703 6.86382C368.515 8.93747 372.224 11.8618 374.829 15.637C377.461 19.4121 378.777 23.8385 378.777 28.9163C378.777 32.0534 378.126 35.1771 376.823 38.2876C375.521 41.3715 373.181 44.7877 369.805 48.5362C366.428 52.2848 361.63 56.7511 355.409 61.9352L347.752 68.3157V68.7942H379.655V86.5H316.966Z" fill="#828282"/>
</svg>
